<?xml version="1.0" standalone="no"?>
<!DOCTYPE svg PUBLIC "-//W3C//DTD SVG 20010904//EN"
 "http://www.w3.org/TR/2001/REC-SVG-20010904/DTD/svg10.dtd">
<svg version="1.0" xmlns="http://www.w3.org/2000/svg"
 width="310.000000pt" height="310.000000pt" viewBox="0 0 310.000000 310.000000"
 preserveAspectRatio="xMidYMid meet">
<metadata>
Created by potrace 1.11, written by Peter Selinger 2001-2013
</metadata>
<g transform="translate(0.000000,310.000000) scale(0.100000,-0.100000)"
fill="#000000" stroke="none">
<path d="M0 1550 l0 -1550 1550 0 1550 0 0 1550 0 1550 -1550 0 -1550 0 0
-1550z m1559 1186 c56 -30 117 -98 141 -162 20 -49 24 -83 28 -205 l4 -147 69
103 c76 113 171 218 237 259 53 33 143 57 185 49 90 -17 163 -87 199 -192 20
-58 23 -84 22 -216 -1 -221 -25 -342 -198 -1000 -50 -191 -77 -361 -83 -525
-6 -156 2 -204 39 -260 70 -102 181 -97 305 14 82 74 126 84 168 41 57 -56 24
-123 -103 -209 -168 -114 -341 -118 -461 -10 -180 162 -175 472 22 1219 107
405 137 567 137 741 0 111 -12 169 -43 202 -25 27 -37 27 -86 3 -91 -47 -219
-227 -346 -486 -104 -212 -137 -308 -160 -460 -18 -125 -29 -154 -70 -181 -20
-13 -30 -14 -60 -4 -19 6 -42 21 -50 33 -22 31 -19 147 6 237 27 100 76 434
90 624 12 167 3 288 -25 331 -22 34 -70 57 -101 49 -36 -9 -120 -87 -167 -156
-71 -106 -98 -176 -109 -285 -29 -298 -135 -734 -295 -1213 -49 -145 -83 -233
-98 -248 -42 -43 -128 -23 -142 34 -5 17 15 90 64 237 127 380 218 726 268
1012 44 255 43 555 -2 555 -18 0 -94 -97 -163 -208 -62 -101 -211 -403 -236
-479 -19 -60 -45 -83 -93 -83 -43 0 -82 38 -82 79 0 75 140 380 270 590 76
122 188 247 245 272 99 45 186 7 231 -100 l14 -34 68 70 c62 65 118 103 182
124 38 13 142 4 179 -15z"/>
</g>
</svg>
