<?xml version="1.0" encoding="utf-8"?>
<!-- Generator: Adobe Illustrator 15.0.0, SVG Export Plug-In . SVG Version: 6.00 Build 0)  -->
<svg version="1.2" baseProfile="tiny" id="Layer_1" xmlns="http://www.w3.org/2000/svg" xmlns:xlink="http://www.w3.org/1999/xlink"
	 x="0px" y="0px" width="78.419px" height="62.39px" viewBox="0 0 78.419 62.39" overflow="inherit" xml:space="preserve">
<g>
	<path fill="#3786B9" d="M0.058,22.162c0.077-0.386,0.357-1.111,0.841-2.174c0.483-1.044,1.005-2.02,1.565-2.928
		c0.696-1.16,1.324-1.952,1.885-2.378c0.464-0.348,0.917-0.473,1.362-0.377c0.503,0.116,0.87,0.474,1.102,1.073
		c0.058,0.136,0.106,0.271,0.145,0.406C7.17,15.494,7.383,15.232,7.596,15c0.656-0.696,1.314-1.082,1.971-1.159
		c0.889-0.116,1.652,0.26,2.29,1.13c0.29,0.426,0.474,1.083,0.551,1.972c0.038,0.56,0.029,1.227-0.029,2
		c0.773-1.353,1.527-2.367,2.261-3.044c0.522-0.464,1.034-0.754,1.537-0.87c0.638-0.135,1.208,0.01,1.71,0.435
		c0.677,0.561,1.025,1.537,1.044,2.928c0.019,1.005-0.116,2.252-0.406,3.74c-0.193,1.005-0.483,2.232-0.87,3.682l-0.695,2.551
		c-0.426,1.952-0.658,3.566-0.696,4.842c-0.02,0.753,0.072,1.344,0.275,1.768c0.203,0.426,0.45,0.705,0.74,0.842
		c0.714,0.309,1.594-0.059,2.638-1.103c0.154-0.155,0.338-0.231,0.551-0.231c0.212,0,0.395,0.076,0.55,0.231
		c0.155,0.155,0.232,0.339,0.232,0.552c0,0.211-0.077,0.396-0.232,0.551c-0.715,0.714-1.445,1.197-2.189,1.449
		c-0.744,0.25-1.464,0.241-2.159-0.029c-0.677-0.29-1.184-0.797-1.522-1.522c-0.339-0.724-0.489-1.579-0.45-2.565
		c0.039-1.353,0.29-3.063,0.754-5.131c0.019-0.154,0.242-1.024,0.667-2.609c0.406-1.527,0.696-2.725,0.87-3.595
		c0.27-1.391,0.396-2.522,0.376-3.392c-0.019-0.908-0.173-1.488-0.463-1.739c-0.136-0.116-0.271-0.155-0.406-0.116
		c-0.232,0.058-0.503,0.222-0.812,0.493c-0.677,0.618-1.391,1.623-2.145,3.015c-0.677,1.256-1.247,2.541-1.711,3.855l-0.116,0.406
		c-0.097,0.6-0.164,1.034-0.203,1.305c-0.019,0.058-0.039,0.164-0.058,0.319c-0.019,0.155-0.029,0.251-0.029,0.29
		c-0.019,0.174-0.043,0.304-0.072,0.391l-0.131,0.218c-0.251,0.367-0.579,0.454-0.985,0.261c-0.097-0.039-0.179-0.092-0.247-0.16
		l-0.13-0.188l-0.029-0.087l-0.029-0.174c-0.077-0.329-0.058-0.783,0.058-1.363c0.077-0.348,0.183-0.734,0.319-1.16
		c0.038-0.308,0.067-0.531,0.087-0.666c0.27-1.662,0.444-3.015,0.521-4.059c0.078-0.889,0.097-1.624,0.059-2.203
		c-0.039-0.599-0.126-0.986-0.261-1.16c-0.271-0.367-0.542-0.541-0.812-0.522c-0.29,0.039-0.638,0.271-1.044,0.696
		C8.378,16.44,8.059,16.88,7.77,17.393c-0.29,0.512-0.493,0.962-0.609,1.348c0,0.174-0.01,0.368-0.029,0.58
		c-0.116,1.334-0.397,2.947-0.841,4.841c-0.619,2.648-1.469,5.49-2.551,8.524c-0.058,0.192-0.184,0.338-0.377,0.434
		c-0.194,0.098-0.391,0.111-0.594,0.044c-0.203-0.067-0.353-0.198-0.45-0.392c-0.097-0.192-0.106-0.396-0.029-0.608
		c1.044-2.957,1.865-5.74,2.464-8.35c0.425-1.836,0.696-3.381,0.812-4.638l0.029-0.203c-0.039-0.096-0.039-0.203,0-0.319
		l0.029-0.174c0.039-1.101-0.048-1.942-0.261-2.522l-0.029-0.058l-0.029,0.029c-0.406,0.309-0.908,0.957-1.507,1.942
		c-0.522,0.87-1.005,1.779-1.45,2.726c-0.444,0.985-0.705,1.623-0.783,1.913c-0.038,0.213-0.149,0.377-0.333,0.493
		c-0.184,0.116-0.382,0.15-0.594,0.101c-0.213-0.048-0.377-0.164-0.493-0.348C0.029,22.573,0,22.375,0.058,22.162"/>
	<path fill="#3786B9" d="M21.437,23.668c-0.35,1.366-0.533,2.764-0.549,4.196c0,0.916,0.1,1.59,0.299,2.023
		c0.15,0.333,0.383,0.474,0.699,0.424c0.566-0.083,1.083-0.64,1.549-1.673c0.316-0.716,0.599-1.648,0.849-2.797
		c0-0.05,0.091-0.575,0.275-1.574c0.05-0.316,0.091-0.524,0.125-0.624l0.025-0.15l0.15-0.225c0.133-0.15,0.307-0.224,0.524-0.224
		c0.25,0.016,0.441,0.133,0.574,0.349l0.075,0.275v0.05v0.05v0.15c-0.016,0.166-0.083,0.633-0.2,1.398
		c-0.149,0.816-0.249,1.482-0.299,1.998c-0.084,0.8-0.1,1.433-0.05,1.898c0.033,0.5,0.116,0.816,0.25,0.95
		c0.316,0.299,0.615,0.374,0.899,0.224c0.333-0.166,0.682-0.566,1.049-1.199c0.316-0.549,0.595-1.186,0.836-1.91
		c0.242-0.725,0.455-1.28,0.594-1.721c0.063-0.193,0.125-0.329,0.275-0.437c0.149-0.108,0.316-0.15,0.499-0.125
		c0.183,0.025,0.329,0.112,0.437,0.262c0.108,0.15,0.226,0.212,0.186,0.453c-0.168,0.592-0.438,1.206-0.704,2.005
		c-0.267,0.799-0.583,1.515-0.949,2.148c-0.5,0.866-1.041,1.448-1.624,1.748c-0.833,0.416-1.632,0.267-2.397-0.449
		c-0.284-0.266-0.484-0.64-0.6-1.123c-0.599,0.932-1.315,1.473-2.148,1.623c-0.982,0.166-1.69-0.233-2.123-1.199
		c-0.283-0.632-0.424-1.507-0.424-2.622c0.016-1.532,0.216-3.039,0.599-4.521c0.05-0.183,0.154-0.32,0.312-0.412
		c0.158-0.091,0.329-0.112,0.512-0.062c0.183,0.05,0.321,0.154,0.413,0.312C21.466,23.314,21.487,23.485,21.437,23.668"/>
	<path fill="#3786B9" d="M29.156,25.441c0.017-0.033,0.2-0.466,0.55-1.298l0.349-0.8c0.05-0.133,0.092-0.233,0.125-0.299l0.075-0.1
		l0.05-0.075l0.2-0.2c0.366-0.233,0.749-0.2,1.149,0.1c0.2,0.15,0.407,0.383,0.624,0.699c0.333,0.517,0.666,1.216,0.999,2.098
		c0.333,0.833,0.575,1.624,0.724,2.373c0.2,0.899,0.217,1.548,0.05,1.948c-0.067,0.166-0.133,0.325-0.199,0.474l0.449,0.125
		c0.915,0.3,1.74-0.1,2.473-1.199c0.432-0.632,0.949-1.789,1.548-3.471c0.05-0.166,0.158-0.291,0.325-0.375
		c0.166-0.083,0.337-0.095,0.512-0.037c0.175,0.058,0.303,0.171,0.387,0.337c0.083,0.167,0.091,0.341,0.025,0.525
		c-0.617,1.781-1.174,3.046-1.674,3.796c-1.115,1.648-2.447,2.222-3.995,1.723l-0.425-0.125l-0.575-0.2
		c-0.283,0.216-0.599,0.375-0.949,0.476c-0.782,0.215-1.615,0.125-2.497-0.275c-0.799-0.35-1.382-0.841-1.748-1.474
		c-0.2-0.299-0.284-0.661-0.25-1.086c0.033-0.424,0.233-0.778,0.599-1.061c0.45-0.35,0.966-0.441,1.549-0.275
		c0.383,0.1,0.807,0.316,1.274,0.649c0.266,0.217,0.59,0.5,0.974,0.849c0.332,0.317,0.52,0.492,0.561,0.525l0.138,0.1
		c0.1-0.15,0.183-0.316,0.249-0.5c0.051-0.149,0.009-0.541-0.124-1.174c-0.134-0.665-0.35-1.39-0.65-2.172
		c-0.299-0.8-0.591-1.407-0.874-1.823l-0.2,0.449c-0.366,0.866-0.566,1.324-0.599,1.374c-0.084,0.166-0.212,0.279-0.387,0.337
		s-0.346,0.046-0.512-0.038c-0.167-0.083-0.279-0.212-0.337-0.387C29.06,25.778,29.087,25.667,29.156,25.441 M31.379,30.662
		l-0.449-0.4c-0.334-0.333-0.625-0.582-0.875-0.749c-0.316-0.25-0.583-0.399-0.799-0.449c-0.15-0.05-0.266-0.042-0.35,0.025
		c-0.116,0.099-0.124,0.241-0.024,0.424c0.216,0.383,0.59,0.691,1.123,0.924C30.488,30.653,30.946,30.729,31.379,30.662"/>
	<path fill="#3786B9" d="M40.02,23.669c-0.018,0.133-0.101,0.649-0.25,1.548c-0.149,0.833-0.258,1.566-0.325,2.198
		c-0.099,0.833-0.141,1.49-0.124,1.973c0.033,0.533,0.1,0.858,0.199,0.974c0.101,0.117,0.183,0.183,0.25,0.2
		c0.05,0,0.125-0.033,0.225-0.1c0.316-0.233,0.674-0.733,1.074-1.499c0.383-0.749,0.874-1.989,1.473-3.721
		c0.067-0.166,0.143,3.547-0.273,4.346c-0.5,0.949-0.991,1.598-1.475,1.948c-0.383,0.283-0.766,0.398-1.149,0.35
		c-0.416-0.033-0.791-0.242-1.124-0.625c-0.316-0.366-0.499-0.965-0.549-1.798c-0.017-0.583,0.025-1.324,0.125-2.223
		c0.066-0.566,0.175-1.299,0.325-2.198c0.149-0.899,0.233-1.406,0.249-1.523c0.033-0.2,0.121-0.354,0.263-0.462
		c0.141-0.108,0.307-0.15,0.499-0.125c0.191,0.025,0.341,0.109,0.45,0.25S40.036,23.486,40.02,23.669 M40.169,19.498
		c0.134,0.133,0.2,0.291,0.2,0.475c0,0.183-0.066,0.341-0.2,0.474c-0.134,0.134-0.292,0.2-0.475,0.2c-0.183,0-0.341-0.066-0.474-0.2
		c-0.134-0.133-0.2-0.291-0.2-0.474c0-0.184,0.066-0.342,0.2-0.475c0.133-0.133,0.291-0.2,0.474-0.2
		C39.877,19.298,40.036,19.365,40.169,19.498"/>
	<path fill="#3786B9" d="M44.24,28.938c1.033,1.032,2.09,1.423,3.172,1.174c0.601-0.15,1.24-0.891,1.923-2.223
		c0.5-1.015,0.916-2.114,1.249-3.297c0.05-0.183,0.154-0.32,0.312-0.412c0.158-0.091,0.329-0.112,0.512-0.062
		c0.184,0.05,0.321,0.154,0.413,0.312c0.091,0.158,0.112,0.329,0.062,0.512c-0.35,1.282-0.799,2.464-1.349,3.546
		c-0.883,1.715-1.823,2.689-2.822,2.922c-1.481,0.35-2.896-0.1-4.246-1.348v0.724c0,0.183-0.065,0.342-0.198,0.474
		c-0.135,0.134-0.292,0.2-0.476,0.2c-0.183,0-0.341-0.066-0.474-0.2c-0.134-0.132-0.2-0.291-0.2-0.474
		c0-1.948,0.003-3.305,0.012-4.071s0.051-1.911,0.125-3.434c0.075-1.523,0.196-2.893,0.362-4.108
		c0.133-0.916,0.358-1.724,0.674-2.423c0.25-0.532,0.588-0.965,1.013-1.299c0.425-0.332,0.936-0.382,1.535-0.149
		c0.716,0.249,1.107,0.799,1.175,1.648c0.05,0.566-0.06,1.257-0.325,2.073c-0.216,0.633-0.491,1.265-0.824,1.898
		s-0.625,1.107-0.874,1.424c-0.283,0.349-0.533,0.591-0.75,0.724c-0.099,0.067-0.316,0.166-0.649,0.299l-0.05,0.725
		c0.2-0.2,0.4-0.375,0.601-0.525c0.333-0.266,0.678-0.47,1.035-0.612c0.358-0.141,0.759-0.191,1.199-0.149
		c0.441,0.041,0.862,0.22,1.262,0.537c0.466,0.366,0.732,0.865,0.799,1.498c0.117,1.132-0.466,2.14-1.748,3.022
		C45.939,28.363,45.123,28.722,44.24,28.938 M43.491,26.59c-0.017,0.35-0.025,0.724-0.025,1.124h0.025
		c0.833-0.1,1.649-0.424,2.448-0.974c0.832-0.566,1.215-1.149,1.148-1.748c-0.033-0.266-0.134-0.466-0.3-0.6
		c-0.5-0.399-1.107-0.324-1.823,0.225C44.298,25.15,43.807,25.808,43.491,26.59 M43.691,21.795c0.05-0.066,0.116-0.166,0.2-0.3
		c0.149-0.249,0.333-0.653,0.549-1.211c0.217-0.558,0.399-1.12,0.55-1.686c0.166-0.632,0.233-1.14,0.2-1.523
		c-0.018-0.283-0.084-0.458-0.2-0.525c-0.234-0.1-0.458,0.159-0.675,0.775c-0.199,0.583-0.341,1.265-0.424,2.048
		C43.807,20.138,43.741,20.946,43.691,21.795"/>
	<path fill="#3786B9" d="M0.058,47.035c0.077-0.387,0.357-1.11,0.841-2.174c0.483-1.044,1.005-2.02,1.565-2.928
		c0.696-1.16,1.324-1.952,1.885-2.378c0.464-0.349,0.917-0.474,1.362-0.377c0.503,0.115,0.87,0.474,1.102,1.072
		c0.058,0.136,0.106,0.271,0.145,0.406c0.212-0.29,0.425-0.551,0.638-0.783c0.656-0.695,1.314-1.082,1.971-1.158
		c0.889-0.116,1.652,0.261,2.29,1.13c0.29,0.425,0.474,1.083,0.551,1.971c0.038,0.561,0.029,1.228-0.029,2.001
		c0.773-1.354,1.527-2.367,2.261-3.044c0.522-0.464,1.034-0.754,1.537-0.87c0.638-0.135,1.208,0.01,1.71,0.435
		c0.677,0.562,1.025,1.536,1.044,2.929c0.019,1.005-0.116,2.252-0.406,3.739c-0.193,1.006-0.483,2.232-0.87,3.683l-0.695,2.551
		c-0.426,1.952-0.658,3.566-0.696,4.841c-0.02,0.754,0.072,1.343,0.275,1.77c0.203,0.425,0.45,0.705,0.74,0.841
		c0.714,0.309,1.594-0.058,2.638-1.103c0.154-0.154,0.338-0.231,0.551-0.231c0.212,0,0.395,0.077,0.55,0.231
		c0.155,0.154,0.232,0.339,0.232,0.552c0,0.212-0.077,0.396-0.232,0.551c-0.715,0.714-1.445,1.198-2.189,1.449
		c-0.744,0.251-1.464,0.241-2.159-0.029c-0.677-0.29-1.184-0.797-1.522-1.522c-0.339-0.725-0.489-1.579-0.45-2.565
		c0.039-1.353,0.29-3.063,0.754-5.131c0.019-0.154,0.242-1.024,0.667-2.609c0.406-1.527,0.696-2.725,0.87-3.595
		c0.27-1.392,0.396-2.522,0.376-3.393c-0.019-0.907-0.173-1.487-0.463-1.738c-0.136-0.116-0.271-0.155-0.406-0.116
		c-0.232,0.058-0.503,0.222-0.812,0.493c-0.677,0.618-1.391,1.623-2.145,3.015c-0.677,1.256-1.247,2.541-1.711,3.855l-0.116,0.405
		c-0.097,0.601-0.164,1.034-0.203,1.306c-0.019,0.058-0.039,0.164-0.058,0.318c-0.019,0.155-0.029,0.251-0.029,0.29
		c-0.019,0.174-0.043,0.305-0.072,0.392l-0.131,0.217c-0.251,0.368-0.579,0.455-0.985,0.261c-0.097-0.038-0.179-0.091-0.247-0.159
		l-0.13-0.188l-0.029-0.087l-0.029-0.173c-0.077-0.329-0.058-0.783,0.058-1.363c0.077-0.349,0.183-0.734,0.319-1.16
		c0.038-0.309,0.067-0.531,0.087-0.666c0.27-1.663,0.444-3.015,0.521-4.059c0.078-0.89,0.097-1.624,0.059-2.203
		c-0.039-0.6-0.126-0.986-0.261-1.16c-0.271-0.367-0.542-0.541-0.812-0.522c-0.29,0.039-0.638,0.271-1.044,0.696
		c-0.348,0.367-0.667,0.807-0.956,1.319c-0.29,0.512-0.493,0.962-0.609,1.348c0,0.174-0.01,0.367-0.029,0.58
		c-0.116,1.334-0.397,2.947-0.841,4.841c-0.619,2.648-1.469,5.489-2.551,8.524c-0.058,0.192-0.184,0.338-0.377,0.434
		c-0.194,0.098-0.391,0.112-0.594,0.044c-0.203-0.066-0.353-0.198-0.45-0.391c-0.097-0.193-0.106-0.396-0.029-0.609
		c1.044-2.957,1.865-5.74,2.464-8.35c0.425-1.836,0.696-3.382,0.812-4.638l0.029-0.203c-0.039-0.097-0.039-0.203,0-0.319
		l0.029-0.174c0.039-1.103-0.048-1.942-0.261-2.522l-0.029-0.058l-0.029,0.029c-0.406,0.309-0.908,0.957-1.507,1.941
		c-0.522,0.87-1.005,1.779-1.45,2.727c-0.444,0.984-0.705,1.623-0.783,1.913c-0.038,0.213-0.149,0.377-0.333,0.492
		c-0.184,0.116-0.382,0.15-0.594,0.102c-0.213-0.048-0.377-0.164-0.493-0.349C0.029,47.446,0,47.248,0.058,47.035"/>
	<path fill="#3786B9" d="M20.528,50.592c-0.014,0.114-0.086,0.562-0.216,1.341c-0.13,0.72-0.224,1.354-0.281,1.901
		c-0.087,0.722-0.123,1.29-0.108,1.708c0.028,0.463,0.086,0.743,0.173,0.845c0.086,0.101,0.158,0.158,0.216,0.173l0.195-0.087
		c0.273-0.202,0.583-0.634,0.929-1.297c0.332-0.649,0.757-1.724,1.276-3.223c0.057-0.144,0.122,3.07-0.238,3.763
		c-0.432,0.821-0.858,1.384-1.276,1.687c-0.331,0.245-0.663,0.346-0.994,0.303c-0.361-0.029-0.685-0.209-0.973-0.541
		c-0.274-0.316-0.433-0.836-0.476-1.557c-0.014-0.504,0.022-1.146,0.108-1.924c0.058-0.49,0.152-1.124,0.281-1.903
		c0.13-0.777,0.202-1.218,0.217-1.318c0.028-0.174,0.104-0.307,0.227-0.4c0.122-0.093,0.266-0.13,0.432-0.108
		c0.166,0.022,0.296,0.095,0.389,0.217C20.503,50.292,20.542,50.433,20.528,50.592 M20.659,46.981
		c0.115,0.115,0.173,0.252,0.173,0.411s-0.058,0.295-0.173,0.411c-0.116,0.114-0.252,0.173-0.411,0.173s-0.296-0.059-0.411-0.173
		c-0.115-0.116-0.173-0.252-0.173-0.411s0.058-0.296,0.173-0.411c0.115-0.115,0.252-0.173,0.411-0.173S20.542,46.866,20.659,46.981"
		/>
	<path fill="#3786B9" d="M23.166,54.224c0.058,0.692,0.188,1.225,0.39,1.6c0.259,0.418,0.533,0.671,0.821,0.758
		c0.404,0.115,0.764,0.078,1.081-0.108c0.289-0.187,0.555-0.519,0.8-0.995c0.221-0.426,0.401-0.924,0.54-1.493
		c0.115-0.47,1.003,1.104,0.541,2.013c-0.331,0.662-0.742,1.146-1.232,1.448c-0.62,0.39-1.312,0.477-2.076,0.26
		c-0.591-0.174-1.088-0.612-1.492-1.319c-0.591-0.994-0.742-2.565-0.454-4.713c0.188-1.528,0.526-3.027,1.017-4.498
		c0.288-0.894,0.583-1.644,0.886-2.248c0.245-0.505,0.49-0.908,0.735-1.211c0.375-0.434,0.757-0.686,1.146-0.757
		c0.519-0.072,0.937,0.071,1.254,0.433c0.216,0.245,0.353,0.583,0.411,1.016c0.087,0.562,0.043,1.16-0.13,1.794
		c-0.706,2.999-2.061,5.631-4.065,7.893L23.166,54.224 M22.907,52.408c1.24-1.743,2.119-3.755,2.638-6.032
		c0.101-0.461,0.122-0.887,0.065-1.275c-0.015-0.188-0.051-0.317-0.108-0.39l-0.13-0.021c-0.072,0.015-0.181,0.115-0.325,0.303
		c-0.172,0.217-0.345,0.519-0.518,0.908c-0.246,0.52-0.484,1.167-0.714,1.946c-0.404,1.34-0.685,2.674-0.843,4
		C22.943,52.033,22.921,52.221,22.907,52.408"/>
	<path fill="#3786B9" d="M30.129,51.976c-0.029-0.288-0.072-0.526-0.13-0.714c-0.058-0.188-0.108-0.296-0.151-0.324l-0.087-0.065
		c-0.158-0.043-0.41,0.123-0.756,0.498c-0.433,0.475-0.779,1.095-1.038,1.859c-0.26,0.75-0.324,1.448-0.195,2.097
		c0.115,0.606,0.512,0.988,1.189,1.146c0.707,0.159,1.305,0.022,1.795-0.409c0.894-0.793,1.586-2.142,2.076-4.044
		c0.043-0.158,0.133-0.277,0.27-0.356c0.137-0.08,0.247,2.628-0.153,3.392c-0.405,0.776-0.877,1.4-1.415,1.873
		c-0.375,0.331-0.818,0.555-1.329,0.67c-0.512,0.115-1.013,0.122-1.503,0.021c-0.519-0.129-0.97-0.367-1.351-0.713
		c-0.382-0.346-0.631-0.8-0.747-1.362c-0.158-0.851-0.075-1.741,0.249-2.671c0.325-0.93,0.76-1.697,1.308-2.302
		c0.663-0.706,1.305-0.981,1.925-0.822c0.692,0.202,1.095,0.915,1.211,2.141c0.014,0.158-0.03,0.3-0.13,0.422
		c-0.101,0.123-0.235,0.19-0.4,0.206c-0.166,0.014-0.31-0.029-0.433-0.131C30.212,52.286,30.143,52.149,30.129,51.976"/>
	<path fill="#3786B9" d="M32.312,57.057c0.014-0.562,0.022-0.887,0.022-0.974c0.014-0.316,0.028-0.555,0.043-0.714
		c0-3.445,0.144-6.198,0.432-8.259c0.115-0.793,0.31-1.492,0.584-2.097c0.216-0.463,0.508-0.836,0.876-1.125
		c0.367-0.288,0.811-0.331,1.33-0.131c0.619,0.218,0.958,0.692,1.016,1.428c0.043,0.49-0.051,1.089-0.281,1.795
		c-0.188,0.548-0.426,1.096-0.714,1.643c-0.288,0.548-0.54,0.959-0.757,1.233c-0.245,0.303-0.461,0.512-0.648,0.627
		c-0.087,0.058-0.274,0.144-0.562,0.259c-0.03,0.534-0.051,1.096-0.065,1.688l0.237-0.39c0.404-0.648,0.815-1.139,1.233-1.471
		c0.591-0.489,1.167-0.663,1.73-0.519c0.605,0.145,0.965,0.685,1.081,1.621c0.043,0.347,0.05,1.074,0.021,2.185
		c-0.014,0.908,0.022,1.55,0.109,1.924c0.086,0.361,0.223,0.548,0.41,0.562c0.476,0.058,0.959-0.324,1.449-1.146
		c0.187-0.317,0.402-0.793,0.648-1.427c0.072-0.202,0.173-0.527,0.303-0.974c0.144-0.462,0.273,2.616,0.044,3.006
		c-0.75,1.239-1.608,1.809-2.573,1.707c-0.736-0.086-1.204-0.575-1.406-1.47c-0.115-0.476-0.166-1.211-0.151-2.206
		c0.028-1.037,0.021-1.715-0.022-2.031c-0.058-0.433-0.13-0.642-0.216-0.628c-0.173-0.043-0.404,0.051-0.692,0.281
		c-0.317,0.259-0.649,0.663-0.995,1.211c-0.302,0.476-0.569,0.974-0.8,1.492c-0.23,0.52-0.382,0.915-0.454,1.189v0.043v1.772
		c0,0.159-0.057,0.295-0.173,0.411c-0.115,0.115-0.252,0.173-0.41,0.173c-0.217,0-0.383-0.094-0.498-0.281
		C32.363,57.352,32.312,57.215,32.312,57.057 M33.74,48.819c0.043-0.043,0.101-0.122,0.173-0.238
		c0.144-0.187,0.324-0.49,0.541-0.908c0.216-0.418,0.389-0.843,0.518-1.275c0.159-0.49,0.224-0.879,0.195-1.167
		c-0.014-0.216-0.079-0.347-0.195-0.39c-0.216-0.071-0.425,0.122-0.627,0.583c-0.202,0.447-0.339,0.967-0.41,1.558
		C33.848,47.558,33.783,48.169,33.74,48.819"/>
	<path fill="#3786B9" d="M41.502,54.224c0.057,0.692,0.187,1.225,0.389,1.6c0.259,0.418,0.533,0.671,0.821,0.758
		c0.404,0.115,0.764,0.078,1.081-0.108c0.289-0.187,0.555-0.519,0.8-0.995c0.243-0.467,0.436-1.021,0.579-1.66
		c0.096-0.425,0.964,1.271,0.502,2.18c-0.331,0.662-0.742,1.146-1.232,1.448c-0.62,0.39-1.312,0.477-2.075,0.26
		c-0.592-0.174-1.089-0.612-1.492-1.319c-0.591-0.994-0.742-2.565-0.454-4.713c0.187-1.528,0.525-3.027,1.017-4.498
		c0.288-0.894,0.583-1.644,0.887-2.248c0.244-0.505,0.489-0.908,0.734-1.211c0.375-0.434,0.757-0.686,1.146-0.757
		c0.519-0.072,0.937,0.071,1.254,0.433c0.216,0.245,0.353,0.583,0.411,1.016c0.087,0.562,0.043,1.16-0.131,1.794
		c-0.705,2.999-2.061,5.631-4.064,7.893L41.502,54.224 M41.243,52.408c1.239-1.743,2.118-3.755,2.638-6.032
		c0.1-0.461,0.122-0.887,0.064-1.275c-0.015-0.188-0.051-0.317-0.107-0.39l-0.13-0.021c-0.072,0.015-0.181,0.115-0.325,0.303
		c-0.172,0.217-0.345,0.519-0.519,0.908c-0.245,0.52-0.483,1.167-0.714,1.946c-0.403,1.34-0.685,2.674-0.843,4
		C41.278,52.033,41.256,52.221,41.243,52.408"/>
	<path fill="#3786B9" d="M50.388,51.284l0.043,0.022c0.115,0.114,0.181,0.259,0.195,0.432c0.014,0.13-0.008,0.281-0.065,0.454
		c0,0.029-0.036,0.116-0.107,0.26l-0.022,0.108c-0.087,0.461-0.13,0.698-0.13,0.713c-0.029,0.246-0.05,0.491-0.064,0.734
		c-0.029,0.274-0.044,0.434-0.044,0.477c0,0.577,0.059,1.038,0.174,1.384c0.158,0.389,0.396,0.627,0.714,0.713
		c0.288,0.073,0.554,0,0.8-0.216c0.259-0.23,0.519-0.627,0.778-1.189c0.187-0.418,0.382-0.973,0.584-1.664
		c0.272-0.865,0.691,1.672,0.475,2.161c-0.317,0.707-0.677,1.233-1.081,1.579c-0.562,0.49-1.182,0.642-1.859,0.454
		c-0.721-0.202-1.218-0.685-1.491-1.449c-0.043-0.1-0.079-0.216-0.108-0.346c-0.116,0.202-0.238,0.382-0.368,0.541
		c-0.446,0.605-0.915,0.98-1.404,1.124c-0.679,0.202-1.29-0.021-1.839-0.67c-0.403-0.476-0.584-1.204-0.541-2.184
		c0.045-0.836,0.238-1.688,0.584-2.552c0.375-0.937,0.845-1.629,1.406-2.075c0.764-0.577,1.558-0.642,2.378-0.195
		c0.461,0.273,0.757,0.555,0.888,0.843c0.043,0.13,0.078,0.289,0.107,0.477V51.284z M49.286,51.911
		c-0.016-0.101-0.036-0.281-0.065-0.541c-0.014-0.1-0.029-0.165-0.043-0.194c0.014-0.028-0.101-0.107-0.346-0.237
		c-0.375-0.216-0.743-0.188-1.104,0.086c-0.402,0.317-0.749,0.844-1.038,1.579c-0.302,0.721-0.468,1.448-0.497,2.184
		c-0.028,0.678,0.065,1.139,0.281,1.384s0.418,0.338,0.605,0.281c0.23-0.072,0.498-0.31,0.801-0.714
		c0.273-0.36,0.526-0.792,0.756-1.297c0.231-0.49,0.389-0.887,0.477-1.189l0.043-0.151v-0.151c0.044-0.375,0.087-0.677,0.13-0.908
		l0.021-0.107L49.286,51.911"/>
	<path fill="#3786B9" d="M56.702,50.354c-0.072-0.821-0.095-1.636-0.065-2.443c0.101-2.076,0.534-3.582,1.298-4.52
		c0.504-0.618,1.066-0.907,1.687-0.864c0.346,0.015,0.645,0.137,0.897,0.368c0.252,0.23,0.443,0.539,0.572,0.93
		c0.101,0.331,0.137,0.771,0.109,1.318c0,0.13-0.012,0.324-0.033,0.583c-0.021,0.261-0.032,0.447-0.032,0.562l-0.065,0.238
		c-0.648,3.33-1.448,5.968-2.399,7.914l0.173,0.584c0.216,0.604,0.438,1.009,0.67,1.211l0.173,0.086c0.087,0,0.195-0.05,0.324-0.151
		c0.712-0.553,1.31-1.745,1.687-3.311c0.066-0.273,0.901,1.229,0.628,1.92c-0.412,1.039-0.938,1.806-1.578,2.299
		c-0.361,0.274-0.715,0.411-1.061,0.411s-0.663-0.123-0.951-0.368c-0.317-0.288-0.599-0.727-0.843-1.319l-0.152,0.238
		c-0.461,0.634-1.03,1.089-1.708,1.362c-0.359,0.187-0.768,0.237-1.222,0.151c-0.454-0.087-0.84-0.339-1.156-0.757
		c-0.462-0.634-0.642-1.499-0.541-2.595c0.102-0.965,0.39-1.838,0.865-2.616c0.576-0.908,1.254-1.369,2.032-1.384
		C56.24,50.203,56.47,50.253,56.702,50.354 M57.436,54.311c-0.072-0.273-0.137-0.569-0.193-0.887
		c-0.159-0.778-0.245-1.182-0.261-1.211l-0.021-0.173c-0.332-0.447-0.649-0.67-0.952-0.67c-0.346,0-0.692,0.281-1.037,0.843
		c-0.39,0.634-0.62,1.34-0.692,2.119c-0.087,0.778,0.021,1.369,0.324,1.773c0.23,0.316,0.562,0.389,0.995,0.216
		c0.461-0.188,0.857-0.511,1.189-0.974C57.004,55.046,57.22,54.7,57.436,54.311 M57.977,51.868c0.072,0.13,0.137,0.281,0.195,0.454
		l0.021,0.043c0.404-1.514,0.758-3.315,1.061-5.405v-0.108c0-0.087,0.007-0.244,0.021-0.476c0.016-0.229,0.022-0.404,0.022-0.519
		c0.029-0.39,0.014-0.678-0.043-0.865c-0.059-0.288-0.146-0.433-0.26-0.433c-0.158-0.014-0.324,0.122-0.497,0.41
		c-0.404,0.679-0.635,1.86-0.692,3.547C57.761,49.728,57.818,50.844,57.977,51.868"/>
	<path fill="#3786B9" d="M62.647,55.111c0.044,0.418,0.152,0.757,0.325,1.016c0.36,0.534,0.979,0.7,1.858,0.497
		c0.722-0.172,1.283-0.641,1.688-1.404c0.144-0.274,0.273-0.559,0.389-0.854c0.115-0.295,0.238-0.638,0.368-1.027
		c0.129-0.389,0.244-0.721,0.345-0.994c0.059-0.145,0.159-0.248,0.304-0.313c0.144-0.064,0.292-0.068,0.442-0.011
		c0.152,0.058,0.261,0.159,0.325,0.303c0.064,0.145,0.068,0.295,0.01,0.454l-0.302,0.908c-0.144,0.403-0.281,0.777-0.411,1.124
		c-0.13,0.346-0.273,0.671-0.433,0.973c-0.562,1.067-1.383,1.723-2.464,1.968c-1.399,0.331-2.422,0.007-3.071-0.973
		c-0.519-0.764-0.684-1.773-0.497-3.027c0.158-1.168,0.54-2.147,1.146-2.94c0.331-0.433,0.713-0.753,1.146-0.962
		c0.432-0.209,0.894-0.234,1.384-0.076c0.821,0.289,1.254,0.88,1.297,1.772c0.043,0.692-0.166,1.393-0.627,2.099
		c-0.476,0.734-1.066,1.218-1.772,1.447C63.606,55.248,63.123,55.254,62.647,55.111 M62.669,53.857
		c0.346,0.202,0.698,0.245,1.059,0.13c0.447-0.159,0.836-0.49,1.168-0.995c0.317-0.49,0.461-0.951,0.432-1.384
		c-0.014-0.375-0.187-0.612-0.519-0.713c-0.389-0.145-0.792,0.063-1.21,0.627C63.123,52.142,62.813,52.919,62.669,53.857"/>
	<path fill="#3786B9" d="M70.885,51.024c-0.059,0.029-0.138,0.086-0.238,0.173c-0.274,0.217-0.576,0.599-0.908,1.146
		c-0.273,0.461-0.532,0.937-0.777,1.427c-0.231,0.505-0.375,0.852-0.434,1.038c-0.028,0.072-0.058,0.18-0.086,0.324
		c-0.101,0.605-0.209,1.197-0.325,1.772l-0.021,0.131l-0.043,0.173l-0.109,0.13c-0.202,0.201-0.425,0.245-0.67,0.129
		c-0.159-0.072-0.259-0.194-0.303-0.367l-0.021-0.107v-0.108v-0.109c0.015-0.129,0.051-0.338,0.108-0.627
		c0.086-0.488,0.165-0.899,0.238-1.231c0.187-1.269,0.323-2.56,0.41-3.87c0.015-0.159,0.082-0.292,0.205-0.4
		c0.122-0.107,0.264-0.154,0.422-0.141c0.158,0.015,0.293,0.083,0.4,0.206c0.108,0.122,0.154,0.263,0.141,0.421
		c-0.015,0.159-0.021,0.31-0.021,0.454c0.36-0.576,0.698-1.001,1.016-1.275c0.619-0.534,1.183-0.612,1.687-0.237
		c0.26,0.187,0.439,0.482,0.541,0.886c0.072,0.273,0.115,0.62,0.13,1.038c0,0.26-0.011,0.685-0.033,1.275
		c-0.021,0.591-0.032,0.944-0.032,1.06c-0.015,0.88,0.051,1.507,0.194,1.881c0.058,0.173,0.133,0.292,0.228,0.356
		c0.094,0.065,0.233,0.091,0.422,0.076c0.288-0.028,0.504-0.101,0.648-0.217c0.101-0.1,0.267-0.331,0.497-0.691
		c0.317-0.489,0.62-1.096,0.908-1.816c0,0,0.111-0.328,0.258-0.771c0.148-0.441,0.326-1.123,0.326-1.123
		c0.072-0.144,0.31-0.232,0.454-0.29c0.144-0.058,0.292-0.055,0.442,0.011c0.152,0.064,0.257,0.17,0.314,0.313
		c0.057,0.145,0.041,0.274,0,0.454c0,0-0.379,1.17-0.653,1.876c-0.316,0.793-0.709,1.433-1.056,1.994
		c-0.288,0.447-0.533,0.757-0.734,0.93c-0.332,0.274-0.771,0.439-1.318,0.497c-0.462,0.044-0.858-0.05-1.19-0.28
		c-0.288-0.202-0.505-0.505-0.647-0.908c-0.188-0.504-0.274-1.276-0.261-2.313c0.015-0.13,0.029-0.476,0.043-1.038
		c0.016-0.562,0.022-0.979,0.022-1.254c-0.015-0.332-0.043-0.584-0.087-0.757C70.942,51.147,70.914,51.067,70.885,51.024"/>
	<path fill="#3786B9" d="M24.02,37.352c-0.01,0.074-0.056,0.361-0.139,0.861c-0.083,0.462-0.144,0.869-0.18,1.222
		c-0.056,0.463-0.079,0.827-0.07,1.096c0.019,0.296,0.056,0.477,0.111,0.541l0.139,0.111l0.125-0.056
		c0.175-0.13,0.374-0.407,0.596-0.833c0.127-0.248,0.275-0.592,0.444-1.033c0.115-0.3,0.454,0.937,0.223,1.381
		c-0.278,0.526-0.551,0.888-0.819,1.083c-0.213,0.156-0.426,0.221-0.638,0.193c-0.232-0.019-0.44-0.135-0.625-0.347
		c-0.176-0.204-0.277-0.537-0.305-0.999c-0.009-0.324,0.014-0.736,0.069-1.235c0.037-0.314,0.097-0.722,0.181-1.221
		c0.083-0.5,0.129-0.782,0.138-0.847c0.019-0.111,0.067-0.196,0.146-0.258c0.079-0.06,0.171-0.082,0.278-0.068
		c0.106,0.014,0.189,0.06,0.249,0.139C24.002,37.161,24.028,37.251,24.02,37.352 M24.103,35.036
		c0.074,0.074,0.111,0.162,0.111,0.264s-0.037,0.189-0.111,0.264c-0.074,0.074-0.162,0.111-0.264,0.111s-0.189-0.037-0.263-0.111
		c-0.075-0.074-0.111-0.162-0.111-0.264s0.036-0.189,0.111-0.264c0.074-0.074,0.161-0.111,0.263-0.111S24.028,34.961,24.103,35.036"
		/>
	<path fill="#3786B9" d="M28.016,37.992c0.305-0.574,0.694-0.944,1.166-1.11c0.342-0.111,0.643-0.074,0.902,0.111
		c0.231,0.166,0.374,0.412,0.43,0.734c0.028,0.111,0.044,0.255,0.048,0.431c0.005,0.176,0.003,0.323-0.007,0.444l-0.041,0.556
		c-0.019,0.259-0.028,0.421-0.028,0.484c-0.028,0.398-0.032,0.708-0.014,0.93c0.019,0.26,0.065,0.436,0.139,0.527
		c0.065,0.093,0.143,0.13,0.236,0.111c0.148-0.037,0.323-0.148,0.527-0.333c0.194-0.166,0.379-0.365,0.555-0.597
		c0.176-0.23,0.296-0.417,0.361-0.555c0.194-0.417,0.319-0.842,0.375-1.276c0.018-0.103,0.067-0.186,0.145-0.25
		c0.079-0.064,0.169-0.091,0.271-0.076c0.102,0.014,0.185,0.06,0.25,0.139c0.064,0.078,0.092,0.168,0.083,0.271
		c-0.065,0.509-0.217,1.018-0.458,1.525c-0.083,0.176-0.227,0.403-0.43,0.68c-0.204,0.27-0.421,0.506-0.652,0.708
		c-0.306,0.27-0.597,0.436-0.875,0.5c-0.407,0.083-0.74-0.051-0.999-0.402c-0.148-0.212-0.24-0.514-0.277-0.902
		c-0.019-0.259-0.014-0.605,0.014-1.04c0.009-0.11,0.021-0.285,0.034-0.521c0.014-0.236,0.026-0.407,0.035-0.514
		c0.009-0.105,0.012-0.229,0.007-0.367c-0.005-0.14-0.012-0.25-0.021-0.333c-0.028-0.13-0.074-0.218-0.139-0.264
		c-0.055-0.036-0.129-0.036-0.222,0c-0.416,0.139-0.763,0.597-1.04,1.373c-0.074,0.213-0.141,0.436-0.202,0.666
		c-0.06,0.231-0.117,0.493-0.173,0.784c-0.056,0.292-0.095,0.481-0.118,0.569l-0.063,0.174l-0.027,0.068l-0.181,0.14
		c-0.092,0.037-0.18,0.037-0.263,0l-0.181-0.14l-0.055-0.139l-0.014-0.125l0.055-0.388c0.084-0.62,0.125-0.944,0.125-0.971
		c0.047-0.418,0.056-0.791,0.028-1.125c-0.037-0.435-0.125-0.73-0.264-0.888l-0.18,0.014c-0.314,0.027-0.597,0.255-0.846,0.68
		c-0.158,0.287-0.283,0.62-0.375,0.999c-0.056,0.546-0.134,1.212-0.236,1.999l-0.014,0.083l-0.028,0.104l-0.041,0.09l-0.063,0.057
		l-0.152,0.083l-0.229-0.015l-0.139-0.09l-0.069-0.097l-0.014-0.049l-0.014-0.069v-0.07v-0.055c0.009-0.102,0.023-0.264,0.042-0.486
		c0.064-0.583,0.115-1.013,0.152-1.289c0.019-0.103,0.042-0.208,0.07-0.32c0.046-0.527,0.074-1.022,0.083-1.484
		c0-0.102,0.037-0.188,0.111-0.257c0.074-0.069,0.166-0.104,0.277-0.104c0.13,0,0.227,0.056,0.292,0.168
		c0.333-0.381,0.712-0.588,1.138-0.625c0.36-0.028,0.624,0.051,0.791,0.235C27.798,37.317,27.933,37.612,28.016,37.992"/>
	<path fill="#3786B9" d="M39.533,37.797l0.028,0.014c0.073,0.074,0.115,0.166,0.124,0.277c0.01,0.083-0.004,0.18-0.041,0.292
		c0,0.018-0.024,0.074-0.07,0.166l-0.013,0.069c-0.056,0.297-0.084,0.448-0.084,0.458c-0.018,0.157-0.032,0.314-0.041,0.472
		c-0.019,0.176-0.028,0.278-0.028,0.305c0,0.37,0.037,0.666,0.111,0.889c0.101,0.25,0.254,0.402,0.458,0.458
		c0.186,0.047,0.356,0,0.514-0.139c0.167-0.147,0.333-0.402,0.5-0.763c0.119-0.27,0.244-0.625,0.373-1.069
		c0.177-0.555,0.273-0.855,0.292-0.901c0.037-0.103,0.103-0.174,0.194-0.216c0.093-0.042,0.403,0.794,0.236,1.34
		c-0.14,0.463-0.278,0.851-0.416,1.166c-0.204,0.452-0.436,0.791-0.694,1.013c-0.36,0.313-0.759,0.411-1.193,0.291
		c-0.462-0.13-0.781-0.439-0.958-0.93l-0.069-0.223c-0.075,0.13-0.153,0.245-0.236,0.348c-0.287,0.389-0.588,0.629-0.902,0.722
		c-0.435,0.129-0.828-0.014-1.18-0.43c-0.259-0.307-0.374-0.773-0.347-1.402c0.028-0.536,0.153-1.082,0.375-1.637
		c0.24-0.603,0.541-1.046,0.902-1.333c0.49-0.37,0.999-0.411,1.526-0.125c0.296,0.176,0.486,0.356,0.569,0.541
		c0.028,0.084,0.051,0.186,0.07,0.306V37.797z M38.825,38.2c-0.009-0.065-0.023-0.181-0.042-0.348l-0.027-0.125
		c0.009-0.018-0.065-0.068-0.222-0.152c-0.241-0.139-0.477-0.12-0.708,0.056c-0.259,0.204-0.481,0.541-0.666,1.013
		c-0.194,0.463-0.301,0.931-0.319,1.402c-0.019,0.434,0.041,0.729,0.18,0.888c0.139,0.157,0.268,0.217,0.389,0.181
		c0.147-0.047,0.319-0.199,0.513-0.458c0.176-0.231,0.338-0.509,0.486-0.832c0.148-0.315,0.25-0.569,0.305-0.765l0.028-0.097v-0.097
		c0.028-0.24,0.055-0.436,0.083-0.583l0.014-0.069L38.825,38.2"/>
	<path fill="#3786B9" d="M42.377,39.685c0.036,0.443,0.12,0.785,0.25,1.025c0.167,0.27,0.342,0.432,0.527,0.486
		c0.258,0.074,0.49,0.051,0.693-0.069c0.185-0.12,0.355-0.333,0.514-0.638c0.259-0.5,0.482-1.2,0.565-2.005
		c0.009-0.102,0.004-0.138,0.087-0.202c0.083-0.065,0.178-0.092,0.284-0.083s0.191,0.055,0.257,0.138
		c0.064,0.084,0.093,0.176,0.083,0.278c-0.092,0.888-0.286,1.624-0.582,2.206c-0.213,0.426-0.478,0.736-0.791,0.93
		c-0.398,0.25-0.842,0.306-1.332,0.167c-0.38-0.11-0.699-0.393-0.958-0.847c-0.379-0.638-0.478-1.646-0.291-3.025
		c0.12-0.979,0.337-1.942,0.652-2.886c0.185-0.574,0.374-1.055,0.568-1.443c0.157-0.324,0.314-0.582,0.473-0.777
		c0.239-0.277,0.484-0.439,0.734-0.485c0.333-0.046,0.602,0.046,0.806,0.278c0.139,0.156,0.226,0.373,0.264,0.652
		c0.055,0.36,0.027,0.744-0.084,1.151c-0.453,1.924-1.323,3.612-2.609,5.064L42.377,39.685 M42.211,38.519
		c0.795-1.12,1.359-2.41,1.692-3.872c0.064-0.295,0.078-0.568,0.042-0.818c-0.01-0.12-0.033-0.204-0.069-0.25l-0.083-0.014
		c-0.047,0.01-0.116,0.074-0.208,0.193c-0.111,0.139-0.223,0.334-0.333,0.584c-0.158,0.332-0.311,0.75-0.458,1.248
		c-0.26,0.86-0.44,1.717-0.541,2.567C42.234,38.279,42.22,38.399,42.211,38.519"/>
	<path fill="#3786B9" d="M45.222,36.618c-0.306-0.028-0.629-0.083-0.972-0.167c-0.102-0.019-0.181-0.071-0.235-0.159
		c-0.057-0.088-0.072-0.184-0.049-0.285c0.022-0.101,0.079-0.18,0.167-0.236c0.088-0.055,0.182-0.068,0.283-0.041
		c0.343,0.074,0.661,0.125,0.958,0.152c0.176-0.758,0.389-1.562,0.639-2.414c0.027-0.092,0.088-0.164,0.18-0.215
		c0.093-0.051,0.188-0.062,0.285-0.035c0.097,0.028,0.171,0.088,0.222,0.182c0.051,0.092,0.062,0.188,0.035,0.291
		c-0.231,0.759-0.426,1.49-0.583,2.191c0.296-0.018,0.615-0.064,0.957-0.138c0.103-0.028,0.197-0.015,0.285,0.041
		c0.087,0.056,0.143,0.135,0.166,0.235c0.022,0.103,0.007,0.197-0.048,0.285c-0.057,0.088-0.136,0.142-0.236,0.159
		c-0.454,0.103-0.884,0.162-1.291,0.181c-0.313,1.526-0.421,2.711-0.319,3.553c0.037,0.305,0.109,0.548,0.216,0.728
		c0.105,0.182,0.22,0.294,0.34,0.34c0.277,0.104,0.568-0.101,0.874-0.609c0.333-0.556,0.597-1.347,0.791-2.373
		c0.027-0.102,0.488,1.269,0.325,1.728c-0.144,0.398-0.302,0.742-0.478,1.033c-0.241,0.398-0.516,0.683-0.826,0.854
		c-0.31,0.171-0.627,0.195-0.95,0.075c-0.286-0.11-0.522-0.318-0.708-0.624c-0.176-0.306-0.286-0.661-0.333-1.068
		C44.806,39.365,44.907,38.143,45.222,36.618"/>
	<path fill="#3786B9" d="M48.275,40.253c0.027,0.268,0.097,0.485,0.208,0.651c0.23,0.344,0.629,0.449,1.193,0.319
		c0.462-0.111,0.823-0.411,1.082-0.902c0.093-0.175,0.177-0.357,0.25-0.548c0.074-0.188,0.152-0.408,0.236-0.658
		c0.083-0.25,0.157-0.463,0.222-0.639c0.037-0.093,0.102-0.16,0.194-0.202c0.092-0.041,0.187-0.043,0.284-0.006
		c0.097,0.037,0.167,0.102,0.209,0.194c0.041,0.092,0.043,0.189,0.006,0.291l-0.194,0.583c-0.093,0.259-0.18,0.5-0.263,0.722
		c-0.084,0.222-0.176,0.43-0.278,0.624c-0.36,0.686-0.888,1.105-1.582,1.263c-0.896,0.213-1.554,0.005-1.97-0.625
		c-0.333-0.489-0.439-1.137-0.32-1.941c0.103-0.75,0.348-1.379,0.736-1.887c0.213-0.278,0.458-0.484,0.735-0.619
		c0.277-0.133,0.573-0.149,0.888-0.049c0.528,0.187,0.805,0.565,0.833,1.139c0.028,0.444-0.106,0.893-0.402,1.346
		c-0.306,0.472-0.685,0.782-1.138,0.93C48.89,40.341,48.58,40.345,48.275,40.253 M48.289,39.448c0.222,0.131,0.449,0.158,0.68,0.083
		c0.287-0.101,0.536-0.313,0.749-0.638c0.203-0.313,0.296-0.61,0.278-0.888c-0.009-0.24-0.12-0.394-0.333-0.458
		c-0.25-0.092-0.509,0.042-0.777,0.402C48.58,38.347,48.38,38.847,48.289,39.448"/>
	<path fill="#3786B9" d="M53.562,37.63l-0.153,0.111c-0.176,0.139-0.37,0.384-0.583,0.735c-0.175,0.297-0.342,0.602-0.499,0.915
		c-0.148,0.324-0.241,0.546-0.278,0.666c-0.018,0.047-0.037,0.116-0.055,0.209c-0.065,0.389-0.134,0.769-0.208,1.139l-0.014,0.083
		l-0.028,0.11l-0.069,0.083c-0.13,0.129-0.272,0.157-0.43,0.083c-0.103-0.046-0.167-0.125-0.195-0.235l-0.014-0.069v-0.069v-0.069
		c0.01-0.083,0.033-0.218,0.07-0.402c0.055-0.315,0.105-0.578,0.152-0.791c0.119-0.813,0.207-1.642,0.264-2.484
		c0.009-0.102,0.053-0.187,0.132-0.257c0.078-0.068,0.169-0.099,0.27-0.09c0.103,0.01,0.188,0.053,0.257,0.133
		c0.07,0.078,0.1,0.168,0.091,0.27c-0.01,0.102-0.015,0.2-0.015,0.292c0.232-0.37,0.449-0.644,0.653-0.819
		c0.396-0.342,0.758-0.393,1.082-0.152c0.167,0.121,0.282,0.311,0.347,0.568c0.046,0.176,0.074,0.398,0.083,0.666
		c0,0.167-0.007,0.44-0.021,0.819c-0.014,0.38-0.021,0.605-0.021,0.68c-0.01,0.565,0.032,0.967,0.124,1.207
		c0.037,0.111,0.086,0.188,0.146,0.229c0.06,0.042,0.149,0.058,0.271,0.049c0.186-0.019,0.323-0.065,0.416-0.14
		c0.065-0.063,0.171-0.213,0.319-0.443c0.204-0.314,0.397-0.703,0.583-1.165l0.18-0.542l0.278-0.666
		c0.046-0.092,0.116-0.157,0.208-0.194c0.093-0.037,0.188-0.035,0.284,0.007c0.098,0.042,0.165,0.109,0.201,0.201
		c0.037,0.093,0.037,0.19,0,0.292l-0.167,0.402c-0.018,0.064-0.114,0.324-0.291,0.776c-0.203,0.51-0.416,0.944-0.638,1.305
		c-0.186,0.287-0.343,0.485-0.472,0.597c-0.213,0.176-0.495,0.282-0.848,0.319c-0.296,0.027-0.55-0.032-0.763-0.181
		c-0.185-0.13-0.324-0.323-0.416-0.583c-0.121-0.323-0.176-0.818-0.167-1.484c0.009-0.083,0.02-0.306,0.028-0.666
		c0.009-0.361,0.014-0.629,0.014-0.806c-0.01-0.212-0.027-0.374-0.056-0.484L53.562,37.63"/>
	<path fill="#3786B9" d="M77.822,31.331c-0.381-3.383-0.475-6.663-1.558-9.176c-0.273-0.529-0.567-1.078-0.854-1.645l-0.009-0.045
		c-0.14-0.638,0.946-0.896,1.325-1.18c0.686-0.514,0.61-1.383,0.282-2.064c-0.09-0.185-0.205-0.364-0.331-0.538
		c0.688-0.418,1.131-1.066,0.957-1.993c-0.156-0.834-0.957-1.402-1.7-1.669c-0.47-0.169-1.254-0.291-1.926-0.227l0.01-0.04
		c0.962-0.107,1.969-0.404,2.443-1.185c0.619-1.021-1.367-1.501-2.408-1.714c0.178-0.454-0.084-0.845-0.476-1.152
		c-0.126-0.099-0.31-0.165-0.458-0.22c-0.282-0.107-0.431-0.335-0.599-0.578c-0.22-0.318-0.582-0.575-0.917-0.757
		c-0.421-0.229-0.851-0.378-1.288-0.474l0.008-0.019c0.705-2.101-0.196-3.98-1.911-5.27c-0.994-0.749-2.367-1.25-3.638-1.144
		c-1.598-0.24-3.439,1.028-4.465,2.123c-1.186,1.266-2.009,3.069-1.188,4.732c-0.531,0.009-1.051,0.072-1.421,0.302
		c-0.305,0.189-0.506,0.382-0.708,0.677c-0.104,0.153-0.087,0.471-0.309,0.539c-0.18,0.055-0.403,0.074-0.567,0.174
		c-0.415,0.255-0.865,0.779-0.501,1.211c-0.102,0.023-0.205,0.044-0.307,0.07c-0.78,0.196-2.421,0.906-2.217,1.968
		c0.084,0.437,0.457,0.705,0.927,0.866c-0.43-0.012-0.853,0.086-1.257,0.355c-0.679,0.454-1.146,1.288-0.998,2.123
		c0.102,0.575,0.369,1.025,0.739,1.36c-0.22,0.312-0.433,0.624-0.64,0.929c-0.5,0.74-0.336,1.4,0.486,1.751
		c0.404,0.172,0.793,0.303,1.123,0.552c-0.446,0.948-0.734,1.92-0.865,3.073c-0.228,2.013-0.259,4.062-0.377,6.084
		c-0.121,2.102-0.274,4.207-0.299,6.312c-0.011,0.886,1.135,0.332,1.186-0.301c0.327-4.078,0.219-8.181,0.507-12.26
		c0.203,0.518,0.729,0.807,1.287,0.831c0.016,0.851,0.351,1.577,1.31,1.979c0.344,0.143,0.664-0.357,0.736-0.718
		c0.825-0.328,1.635-0.719,2.382-0.439c0.713,0.165,1.268,0.494,2.139,0.572c-0.134,0.234-0.119,0.534,0.222,0.727
		c1.639,0.784,3.388-0.195,5.033-0.747c1.059-0.366,2.219-0.494,3.349-0.515c1.083,0.084,1.905,0.338,3.173,0.2
		c0.041-0.102,0.088-0.164,0.121-0.199l0.021-0.023l-0.002-0.004c-0.015-0.036-0.052-0.075-0.038,0.018
		c-1.341-0.916-3.408-1.025-4.908-0.83c-0.434,0.166-0.961,0.286-1.487,0.4c-0.026-0.133-0.105-0.247-0.266-0.284
		c-0.994,0.108-1.892,0.389-2.805,0.426c-1.152,0.134-2.069-0.149-2.811-0.351c-1.456-0.246-2.889-0.051-4.225,0.701
		c-0.364-0.242-0.807-0.626-0.81-1.244c-0.102-0.648-0.272-1.659,0.646-2.044l0.047-0.035C57.8,22.568,59.66,22.32,61.053,22
		c0.99,0.104,1.692,0.024,2.446-0.259c0.345-0.023,0.688-0.06,1.026-0.134c0.441-0.006,0.849-0.046,1.228-0.069
		c0.585,0.162,1.152,0.397,1.565,0.493c1.65,0.488,3.744,0.31,5.211-0.618c0.186-0.118,0.276-0.544-0.057-0.47
		c-0.945,0.209-1.828,0.416-2.807,0.387c-0.762-0.022-1.471-0.238-2.173-0.49l-0.224-0.081c-0.208-0.077-0.417-0.155-0.627-0.231
		c-1.992-0.771-3.933-0.155-5.663,0.46c-0.277,0.005-0.391,0.166-0.396,0.36c-1.268,0.163-2.488,0.205-3.579-0.316
		c0.113-0.204-0.032-0.328-0.226-0.349c-0.886-0.445-1.468,1.057-1.741,1.923c-0.021,0.103-0.041,0.206-0.058,0.308
		c-0.408-0.275-0.62-0.76-0.328-1.304c0.196-0.366,0.336-0.641,0.398-1.051c0.065-0.438-0.139-0.845-0.432-1.175
		c0.329-0.572,0.702-1.117,0.979-1.72c0.046-0.1,0.088-0.201,0.127-0.304c0.195-0.051,0.386-0.115,0.566-0.194
		c0.408-0.18,0.799-1.171,0.088-1.181c-0.109-0.002-0.218,0-0.324,0.005c0.112-0.945,0.016-1.922-0.203-2.829l-0.073,0.028
		c-0.153,0.981-0.253,1.928-0.465,2.844c-0.305,0.016-0.602,0.018-0.894-0.031c0.312-0.412,0.606-0.834,0.858-1.281
		c0.363-0.646-0.354-0.846-0.771-0.434c-0.39,0.382-0.756,0.806-1.107,1.249c-0.354-0.308-0.557-0.865-0.348-1.306
		c0.266-0.563,1.435-0.484,1.911-0.452c0.26,0.017,0.574-0.477,0.257-0.601l-0.221-0.08c0.438,0.04,0.855,0.03,1.133,0.007
		c0.119-0.01,0.306-0.241,0.131-0.306c-0.353-0.13-0.684-0.294-1.023-0.451c-0.398-0.184-1.433-0.56-0.636-0.979
		c0.928-0.487,2.18-0.482,3.195-0.581c1.589-0.155,3.177-0.16,4.765-0.208c0.02,0.144,0.122,0.242,0.347,0.226
		c2.453-0.178,4.908-0.424,7.37-0.317c1.336,0.057,2.656,0.259,3.947,0.607c0.306,0.083,0.608,0.185,0.908,0.288
		c0.418,0.142,0.409,0.116,0.02,0.307c-0.692,0.34-1.426,0.539-2.16,0.76c-0.134,0.04-0.305,0.362-0.069,0.361
		c0.233,0,0.49-0.007,0.755-0.026l-0.027,0.064c-0.228,0.051-0.431,0.131-0.585,0.247c-0.175,0.133-0.366,0.47-0.22,0.686
		l0.025,0.037c0.109,0.164,0.268,0.175,0.415,0.112c-0.621,2.352-0.155,4.669,1.108,6.722l0.013,0.02l0.041,0.133
		c0.25,0.632,0.086,1.116-0.29,1.49c-0.052-0.594-0.302-1.142-0.84-1.444c-0.35-0.241-0.758,0.285-0.591,0.613
		c0.191,0.375,0.28,0.637,0.409,1.16c0.138,0.699-0.173,0.683-0.295,1.264c-0.039,0.198,0.437,0.786,0.685,0.536
		c0.301-0.348,0.525-0.883,0.607-1.442c0.389-0.243,0.707-0.556,0.959-0.939c0.397,1.017,0.615,2.095,0.766,3.148
		c0.217,1.508,0.217,2.981,0.596,5.33c0.772,6.88,0.515,14.762-0.814,21.507c-0.484,1.473,0.478,2.496,1.252,0.308
		C78.419,45.353,78.419,38.259,77.822,31.331 M53.875,21.212l0.065-0.251L53.875,21.212 M54.845,17.489
		c-0.137,0.315-0.301,0.626-0.498,0.933c-0.104,0.159-0.2,0.317-0.294,0.473l-0.09-0.058c-0.319-0.197-0.677-0.343-1.017-0.5
		c-0.516-0.239,0.188-0.711,0.409-0.992l0.054-0.069C53.857,17.44,54.352,17.509,54.845,17.489 M62.545,2.154
		c0.103,0.168,0.313,0.233,0.655,0.065c2.775-1.369,6.636,1.383,6.702,4.38c-1.688-0.244-3.461,0.199-5.181-0.016
		c-0.195-0.024-0.382,0.101-0.506,0.274c-1.18,0.056-2.36,0.207-3.538,0.26c-0.318,0.014-0.716-0.01-1.129-0.019L59.6,6.917
		C59.283,4.728,60.699,2.998,62.545,2.154 M64.898,9.49c-0.058-0.064-0.149-0.109-0.286-0.121c-1.57-0.144-3.189,0-4.76,0.115
		c-1.218,0.09-2.476,0.178-3.69,0.404l0.002-0.212c-0.058-0.125,0.726-0.261,0.799-0.303c0.246-0.14,0.372-0.235,0.543-0.461
		c0.167-0.22,0.103-0.542,0.355-0.695c0.285-0.172,0.616-0.227,0.939-0.276c1.761-0.271,3.547-0.284,5.312-0.47
		c0.05,0.086,0.14,0.15,0.283,0.169c1.919,0.254,3.86-0.364,5.76,0.064c0.824,0.186,1.429,0.648,1.981,1.261
		c0.118,0.13,0.347,0.208,0.518,0.217c0.501,0.026,0.919,0.199,1.136,0.62l-0.223-0.045C70.739,9.116,67.784,9.205,64.898,9.49
		 M75.779,17.84c0.183,0.199,0.274,0.438,0.277,0.717c-0.261,0.158-0.545,0.274-0.807,0.434c-0.143,0.086-0.282,0.198-0.407,0.326
		c-0.289-0.651-0.547-1.326-0.74-2.026c0.364,0.008,0.758-0.021,1.147-0.093C75.427,17.411,75.605,17.623,75.779,17.84
		 M74.72,13.949c0.626,0.069,1.216,0.369,1.594,0.876c0.403,0.54,0.091,0.787-0.34,0.927c-0.313-0.459-0.522-0.971-0.82-1.436
		c-0.394-0.617-1.135,0.236-1.094,0.713c0.03,0.351,0.146,0.665,0.306,0.958c-0.175,0.016-0.35,0.038-0.523,0.07
		c-0.103-0.708-0.124-1.441-0.033-2.2C74.126,13.866,74.461,13.92,74.72,13.949"/>
	<path fill="#3786B9" d="M56.779,20.683C57.043,20.552,56.794,20.626,56.779,20.683"/>
</g>
</svg>
