<?xml version="1.0" encoding="utf-8"?>
<!-- Generator: Adobe Illustrator 15.0.0, SVG Export Plug-In . SVG Version: 6.00 Build 0)  -->
<svg version="1.2" baseProfile="tiny" id="Team" xmlns="http://www.w3.org/2000/svg" xmlns:xlink="http://www.w3.org/1999/xlink"
	 x="0px" y="0px" width="314.063px" height="314.064px" viewBox="0 0 314.063 314.064" overflow="inherit" xml:space="preserve">
<g id="Layer_2_copy_2">
</g>
<g>
	<path fill="#2493BE" d="M55.334,98.684c16.606-30.129,46.317-52.067,81.316-58.145l-6.936-39.898
		C82.274,8.896,42.292,38.466,19.859,79.104L55.334,98.684z M57.448,213.85c-10.432-17.36-16.418-37.616-16.418-59.421
		c0-14.144,2.525-27.632,7.131-40.101l-37.986-14.061c-6.246,16.894-9.657,35.174-9.657,54.161c0,29.285,8.107,56.84,22.217,80.271
		L57.448,213.85z M158.051,270.021l-1.416,0.021c-35.984-0.021-67.983-16.376-89.245-42.131l-31.26,25.775
		c28.552,34.679,72.037,56.86,120.504,56.86c0.642,0,1.269-0.021,1.911-0.021L158.051,270.021z M257.252,211.407
		c-16.97,29.886-46.876,51.474-82.015,57.148l6.448,39.98c47.587-7.696,87.889-36.813,110.79-77.131L257.252,211.407z
		 M256.548,96.221c9.971,17.095,15.691,36.904,15.691,58.208c0,14.646-2.692,28.574-7.618,41.418l37.804,14.515
		c6.678-17.389,10.327-36.271,10.327-55.933c0-28.608-7.73-55.563-21.232-78.652L256.548,96.221z"/>
</g>
</svg>
