<?xml version="1.0" encoding="utf-8"?>
<!-- Generator: Adobe Illustrator 15.0.0, SVG Export Plug-In . SVG Version: 6.00 Build 0)  -->
<svg version="1.2" baseProfile="tiny" id="Layer_1" xmlns="http://www.w3.org/2000/svg" xmlns:xlink="http://www.w3.org/1999/xlink"
	 x="0px" y="0px" width="100%" viewBox="0 0 512.497 100.652" overflow="inherit" xml:space="preserve">
<path fill="#1C93C1" d="M512.497,100.652V12.755c-28.792,22.857-51.155,40.7-123.446,57.624
	c-75.849,17.759-141.742,13.443-207.448-0.922C127.848,57.704,88.23,20.653,0,44.502v56.149H512.497z"/>
<path fill="#1B99C4" d="M315.208,60.577c-28.153,5.039-64.275,3.954-102.424-4.503c-50.231-11.136-91.901-32.362-113.84-55.39
	c-1.155-0.916-2.833-0.927-4.007,0.058c-1.227,1.03-1.465,2.786-0.637,4.106c22.425,22.369,63.702,42.694,113.156,53.207
	C248.122,66.699,286.422,67.02,315.208,60.577"/>
</svg>
