<?xml version="1.0" standalone="no"?>
<!DOCTYPE svg PUBLIC "-//W3C//DTD SVG 20010904//EN"
 "http://www.w3.org/TR/2001/REC-SVG-20010904/DTD/svg10.dtd">
<svg version="1.0" xmlns="http://www.w3.org/2000/svg"
 width="310.000000pt" height="310.000000pt" viewBox="0 0 310.000000 310.000000"
 preserveAspectRatio="xMidYMid meet">
<metadata>
Created by potrace 1.11, written by Peter Selinger 2001-2013
</metadata>
<g transform="translate(0.000000,310.000000) scale(0.100000,-0.100000)"
fill="#000000" stroke="none">
<path d="M0 1550 l0 -1550 1550 0 1550 0 0 1550 0 1550 -1550 0 -1550 0 0
-1550z m2508 1115 c73 -31 112 -86 112 -158 0 -39 3 -46 28 -56 30 -13 102
-75 102 -89 0 -5 14 -13 31 -18 18 -5 37 -17 43 -27 9 -15 6 -22 -19 -43 -27
-21 -28 -24 -9 -24 27 0 74 -43 74 -68 0 -10 -6 -27 -14 -37 -8 -12 -11 -34
-8 -61 4 -39 2 -43 -27 -58 -17 -9 -31 -19 -31 -23 0 -3 11 -30 25 -59 31 -65
50 -186 66 -411 32 -471 -59 -843 -198 -808 -34 8 -46 42 -47 130 -1 44 -5 82
-10 85 -14 8 -73 -107 -81 -156 -7 -48 -22 -65 -39 -42 -10 13 -15 12 -41 -4
-45 -27 -91 -23 -125 10 l-28 28 -26 -23 c-34 -29 -38 -29 -73 1 l-28 24 -35
-24 c-40 -28 -67 -30 -98 -8 -21 14 -25 14 -40 1 -9 -9 -29 -19 -44 -22 -22
-6 -33 -1 -57 23 l-30 29 -22 -23 c-25 -27 -70 -32 -88 -10 -11 13 -17 12 -46
-6 -42 -24 -86 -18 -113 17 l-18 22 -28 -23 c-69 -60 -115 -5 -116 139 0 55
-1 57 -20 47 -35 -19 -80 -109 -80 -161 0 -31 -5 -49 -14 -52 -16 -6 -36 11
-36 31 0 10 -7 8 -26 -7 -31 -25 -100 -28 -129 -7 -16 12 -23 11 -49 -5 -42
-26 -69 -24 -106 7 l-31 27 -23 -22 c-12 -11 -34 -21 -49 -21 -41 0 -51 30
-44 129 8 110 14 131 39 131 19 0 20 -4 14 -43 -3 -23 -9 -73 -13 -111 -5 -57
-4 -68 8 -64 26 8 59 81 59 129 0 94 64 286 104 314 30 22 63 18 77 -7 29 -55
-27 -228 -107 -325 -27 -32 -33 -48 -28 -67 8 -33 27 -48 56 -44 26 4 41 30
63 109 27 102 103 152 141 95 17 -28 16 -67 -4 -74 -7 -2 -17 10 -24 29 l-11
32 -28 -31 c-50 -56 -51 -146 -2 -158 36 -10 73 13 100 61 18 31 23 56 23 114
0 110 18 197 47 232 29 34 42 36 74 11 16 -14 22 -28 21 -55 -2 -47 -49 -145
-79 -164 -13 -9 -23 -23 -23 -33 0 -14 7 -11 34 16 37 37 75 44 97 18 8 -10
16 -52 19 -103 4 -71 8 -86 22 -89 30 -6 55 50 61 136 6 87 37 197 73 259 38
66 99 71 115 9 16 -57 -48 -224 -116 -303 -35 -41 -36 -42 -21 -77 11 -27 21
-36 39 -36 34 0 55 28 76 104 27 99 76 144 134 124 43 -16 57 -52 45 -121 -12
-68 0 -107 32 -107 22 0 44 37 67 112 17 59 52 98 86 98 23 0 25 3 29 78 8
137 68 219 127 174 20 -14 27 -30 29 -62 4 -51 -21 -170 -54 -259 -28 -74 -29
-90 -9 -117 15 -19 16 -18 38 9 13 16 31 53 41 82 23 73 59 115 99 115 42 0
67 -25 67 -68 0 -64 -46 -113 -115 -124 -19 -3 -19 -4 3 -26 23 -23 60 -23 91
2 20 15 51 88 59 139 7 36 11 42 32 42 14 0 37 8 52 18 21 15 31 16 47 7 25
-13 30 -33 33 -135 3 -73 5 -80 24 -83 37 -5 75 74 99 210 23 129 38 365 31
493 -11 182 -39 424 -53 448 -6 10 -43 -22 -43 -36 0 -6 -7 -18 -16 -28 -14
-15 -28 -17 -98 -12 -70 4 -92 1 -160 -21 -92 -31 -129 -33 -154 -8 -44 44
-136 47 -167 5 -13 -18 -9 -21 -83 60 -16 18 -17 15 -23 -50 -4 -37 -7 -123
-8 -190 -1 -128 -10 -173 -36 -173 -18 0 -19 31 -5 274 6 97 17 196 25 221
l13 45 -29 15 c-30 16 -39 51 -18 72 7 7 7 22 -2 51 -10 35 -9 45 4 66 9 13
25 27 36 31 17 5 18 9 9 24 -16 26 -3 50 36 66 19 8 37 24 41 35 3 11 10 20
14 20 5 0 22 14 39 30 18 17 39 30 48 30 12 0 15 6 10 22 -15 58 53 161 127
193 43 19 119 19 165 0z m-1922 -468 c22 -19 28 -34 32 -80 l4 -57 28 39 c57
78 114 101 159 64 50 -40 47 -150 -9 -358 -58 -216 -59 -317 -4 -331 22 -6 33
-1 90 41 10 7 18 5 29 -6 14 -14 14 -18 -5 -41 -11 -15 -40 -34 -64 -43 -39
-15 -47 -15 -79 -2 -20 9 -42 28 -51 46 -23 44 -20 150 9 271 72 299 79 380
35 380 -42 0 -154 -191 -166 -284 -8 -55 -25 -82 -48 -73 -20 8 -21 41 -1 157
9 49 15 122 13 162 -3 69 -4 73 -27 73 -44 0 -79 -59 -96 -161 -17 -104 -77
-327 -104 -390 -20 -43 -46 -58 -57 -31 -3 8 11 68 31 133 20 65 45 160 56
209 19 90 26 225 12 225 -13 0 -55 -67 -98 -154 -40 -80 -68 -105 -81 -71 -16
39 104 253 157 281 32 16 62 7 73 -22 5 -13 12 -11 41 15 43 38 83 40 121 8z
m1216 -50 c28 -44 -15 -174 -78 -234 -19 -18 -31 -33 -25 -33 5 0 13 5 16 11
14 21 57 30 92 18 38 -12 53 -34 53 -80 0 -40 -62 -103 -112 -114 l-32 -7 23
-19 c14 -11 39 -19 62 -19 31 0 42 6 63 33 14 18 36 62 50 98 24 64 50 87 62
54 11 -27 -45 -153 -86 -196 -33 -35 -42 -39 -86 -39 -31 0 -61 7 -81 19 -31
19 -31 19 -36 0 -7 -24 -37 -25 -44 -1 -4 17 -7 16 -33 -10 -36 -36 -55 -35
-89 1 l-28 30 -26 -27 c-26 -26 -45 -29 -127 -24 -14 1 -45 -1 -70 -4 -33 -3
-53 0 -75 14 -29 18 -31 18 -61 0 -36 -21 -75 -13 -96 21 -12 19 -12 19 -41
-5 -59 -50 -119 -18 -132 71 -8 51 11 185 28 202 7 7 17 9 26 4 11 -7 11 -24
2 -97 -13 -100 -5 -149 24 -149 30 0 54 45 78 143 21 88 38 115 60 93 6 -6 5
-40 -3 -93 -16 -112 -12 -143 19 -143 19 0 27 8 36 34 6 19 17 37 23 39 7 2
12 8 12 14 0 18 52 143 67 160 12 13 20 15 39 6 41 -19 99 -165 92 -231 -2
-24 1 -33 15 -35 48 -9 107 77 130 191 11 51 17 62 32 62 18 0 20 -6 16 -60
-8 -106 -6 -185 4 -187 6 -2 23 22 39 52 26 47 31 71 42 195 15 173 26 216 65
249 25 21 34 24 57 15 14 -6 30 -16 34 -22z m-222 -137 c0 -13 -7 -20 -19 -20
-22 0 -35 15 -26 30 12 19 45 11 45 -10z m160 -435 c8 -10 10 -30 5 -62 -8
-54 5 -51 20 5 6 19 16 37 23 40 11 3 12 -6 7 -43 -7 -41 -5 -46 10 -43 31 5
27 -19 -5 -30 -29 -11 -30 -13 -30 -76 0 -36 5 -68 10 -71 17 -10 39 14 46 50
14 76 67 118 102 83 29 -29 -8 -108 -50 -108 -28 0 -17 -24 14 -28 31 -4 48
16 63 76 7 27 18 47 26 47 8 1 25 7 38 14 21 12 26 11 38 -5 7 -10 13 -43 13
-76 0 -76 20 -77 55 -2 19 40 30 53 37 46 21 -21 -31 -119 -68 -128 -39 -10
-54 11 -54 77 0 33 -4 59 -9 59 -13 0 -51 -81 -51 -108 0 -16 -6 -22 -22 -22
-13 1 -38 -2 -56 -6 -23 -5 -38 -2 -51 10 -16 15 -19 15 -31 1 -16 -19 -44
-19 -62 -1 -12 11 -17 11 -33 0 -26 -20 -59 -17 -79 5 -17 19 -18 19 -37 0
-23 -23 -52 -25 -69 -4 -10 12 -15 12 -35 -1 -50 -33 -88 22 -65 93 16 49 37
73 66 73 39 0 55 -26 49 -78 -11 -94 33 -93 59 2 8 28 23 80 32 115 27 95 63
133 94 96z m-712 -86 c-2 -6 -8 -10 -13 -10 -5 0 -11 4 -13 10 -2 6 4 11 13
11 9 0 15 -5 13 -11z m-14 -130 c-4 -38 -4 -69 -1 -69 13 0 37 60 37 93 0 31
4 35 41 47 38 13 43 12 55 -5 13 -17 15 -17 32 -2 45 40 76 6 66 -72 -4 -29
-2 -51 4 -55 14 -8 42 21 59 61 15 38 33 43 33 10 0 -33 -46 -96 -76 -103 -37
-9 -49 9 -50 74 -2 76 -2 76 -19 62 -8 -7 -22 -37 -31 -67 -20 -69 -40 -66
-36 5 5 64 -3 79 -28 57 -12 -10 -21 -38 -25 -70 -7 -49 -9 -53 -37 -59 -50
-10 -61 8 -56 85 5 70 13 93 29 84 5 -4 6 -36 3 -76z m-426 -14 c16 -15 26
-39 30 -75 l7 -52 29 39 c57 76 106 97 149 63 57 -45 56 -132 -3 -355 -48
-182 -56 -285 -27 -322 14 -19 59 -15 87 7 30 23 56 26 63 6 7 -18 -10 -39
-53 -65 -50 -30 -93 -27 -132 8 -31 28 -33 34 -36 109 -3 67 2 106 37 245 49
201 59 284 38 312 -15 20 -16 19 -51 -14 -20 -19 -53 -69 -75 -110 -35 -68
-46 -99 -66 -193 -4 -19 -12 -28 -26 -28 -31 0 -34 24 -16 135 21 130 22 238
3 254 -11 9 -20 10 -35 2 -26 -14 -71 -91 -71 -120 0 -81 -107 -465 -133 -474
-19 -7 -37 4 -37 22 0 10 13 57 30 105 44 132 80 304 80 386 l0 73 -21 -19
c-11 -10 -43 -65 -71 -121 -38 -75 -57 -103 -70 -103 -36 0 -31 31 20 135 72
144 133 194 177 145 18 -20 19 -20 39 -1 47 44 93 47 134 6z m320 -268 c2 -12
-3 -17 -17 -17 -12 0 -21 6 -21 13 0 31 32 34 38 4z"/>
<path d="M2352 2610 c-58 -14 -102 -70 -102 -131 l0 -31 68 6 c37 4 116 9 175
12 104 6 107 7 101 28 -10 34 -57 87 -94 107 -36 20 -90 23 -148 9z"/>
<path d="M2249 2420 c-41 -5 -62 -14 -83 -35 l-28 -28 64 7 c35 4 158 7 274 8
199 2 210 3 190 19 -11 9 -30 21 -41 27 -23 12 -284 13 -376 2z"/>
<path d="M2188 2319 c-53 -4 -101 -10 -107 -13 -18 -12 -13 -23 17 -35 24 -10
27 -17 29 -61 0 -28 7 -58 14 -66 11 -14 10 -19 -7 -33 -32 -25 -48 -62 -50
-106 0 -22 -4 -50 -9 -62 -5 -15 -3 -23 4 -23 6 0 11 6 11 14 0 8 8 24 19 37
18 22 19 22 54 6 38 -18 97 -22 113 -8 5 5 38 16 75 25 61 15 69 15 125 -2 38
-11 93 -17 157 -17 75 0 100 -3 107 -15 5 -8 12 -11 16 -7 4 3 -5 34 -21 68
-22 50 -27 78 -30 154 l-2 93 41 12 41 13 -35 16 c-28 12 -77 15 -250 16 -118
0 -258 -2 -312 -6z"/>
<path d="M2100 2231 c0 -6 -17 -11 -37 -13 -31 -2 -39 -7 -41 -25 -4 -29 9
-29 34 -2 10 11 26 18 36 16 13 -4 18 1 18 14 0 10 -2 19 -5 19 -3 0 -5 -4 -5
-9z"/>
<path d="M2730 2186 c0 -35 15 -40 16 -5 1 16 -3 29 -7 29 -5 0 -9 -11 -9 -24z"/>
<path d="M2792 2185 c12 -27 28 -33 28 -10 0 8 -9 19 -20 25 -18 10 -19 9 -8
-15z"/>
<path d="M2086 2171 c-4 -7 -5 -15 -2 -18 9 -9 19 4 14 18 -4 11 -6 11 -12 0z"/>
<path d="M2021 2086 c-10 -12 -8 -17 10 -26 17 -10 23 -9 30 1 12 20 11 26 -7
33 -21 8 -20 8 -33 -8z"/>
<path d="M2750 2089 c0 -6 5 -19 10 -30 9 -15 15 -17 31 -9 15 9 17 15 9 30
-11 21 -50 28 -50 9z"/>
<path d="M2124 1934 c-4 -14 -1 -37 5 -51 10 -21 15 -24 39 -17 15 4 101 9
192 10 91 1 183 5 205 9 22 3 60 2 85 -4 52 -12 64 -2 55 43 -7 39 -6 39 -48
21 -43 -18 -111 -19 -157 -3 -26 8 -65 8 -166 -1 -117 -11 -136 -10 -163 3
-39 21 -39 21 -47 -10z"/>
<path d="M1043 1134 c-24 -44 -53 -149 -53 -185 1 -20 5 -16 25 21 36 67 57
135 53 172 l-3 33 -22 -41z"/>
<path d="M1672 1129 c-23 -50 -52 -151 -52 -184 1 -15 6 -11 24 18 32 53 58
139 54 179 l-4 33 -22 -46z"/>
<path d="M2202 1143 c-15 -40 -21 -131 -13 -183 l7 -45 13 55 c29 127 24 255
-7 173z"/>
<path d="M1371 1129 c-6 -18 -11 -44 -11 -58 1 -25 2 -25 20 9 20 37 26 80 11
80 -5 0 -14 -14 -20 -31z"/>
<path d="M1827 942 c-8 -9 -20 -30 -26 -45 -14 -36 -14 -114 -1 -122 36 -22
108 136 79 171 -15 19 -33 17 -52 -4z"/>
<path d="M2392 947 c-6 -7 -18 -30 -27 -49 -13 -32 -13 -37 1 -42 23 -9 76 48
72 76 -4 27 -30 35 -46 15z"/>
<path d="M2080 898 c-24 -53 -25 -91 -4 -113 14 -14 19 -14 37 -2 12 8 29 25
39 38 16 21 17 29 5 69 -10 34 -18 46 -35 48 -18 3 -26 -5 -42 -40z"/>
<path d="M1721 2098 c-5 -13 -11 -48 -15 -78 l-6 -55 19 40 c25 53 37 115 22
115 -6 0 -15 -10 -20 -22z"/>
<path d="M1752 1856 c-42 -23 -82 -106 -52 -106 15 0 71 29 93 48 21 19 22 58
1 66 -19 7 -14 8 -42 -8z"/>
<path d="M1241 1804 c-16 -41 -19 -60 -11 -62 7 -3 27 -18 46 -34 19 -17 37
-28 41 -24 9 9 -15 105 -36 145 l-18 34 -22 -59z"/>
<path d="M1195 1691 c-7 -12 40 -44 56 -39 7 2 -1 14 -19 26 -17 13 -33 18
-37 13z"/>
<path d="M1679 1505 c-20 -48 -33 -105 -24 -105 12 0 46 94 43 119 -3 24 -4
23 -19 -14z"/>
<path d="M1689 1386 c-27 -40 -33 -59 -28 -75 20 -51 62 -9 77 77 12 69 -3 68
-49 -2z"/>
<path d="M1474 1374 c-9 -21 -13 -48 -9 -62 6 -23 7 -24 25 -7 21 19 43 82 34
97 -12 19 -36 6 -50 -28z"/>
<path d="M1868 1385 c-6 -14 -8 -28 -4 -32 11 -12 41 12 44 36 5 30 -26 27
-40 -4z"/>
</g>
</svg>
