<?xml version="1.0" encoding="utf-8"?>
<!-- Generator: Adobe Illustrator 15.0.0, SVG Export Plug-In . SVG Version: 6.00 Build 0)  -->
<svg version="1.2" baseProfile="tiny" id="Team" xmlns="http://www.w3.org/2000/svg" xmlns:xlink="http://www.w3.org/1999/xlink"
	 x="0px" y="0px" width="314.063px" height="314.064px" viewBox="0 0 314.063 314.064" overflow="inherit" xml:space="preserve">
<path fill="#2493BE" d="M293.001,78.528C249.646,3.433,153.618-22.298,78.529,21.066C3.434,64.416-22.298,160.44,21.066,235.532
	c43.35,75.095,139.375,100.83,214.465,57.47C310.626,249.638,336.371,153.618,293.001,78.528z M219.833,265.799
	c-60.066,34.692-136.894,14.106-171.576-45.973C13.568,159.759,34.161,82.933,94.23,48.258
	c60.07-34.69,136.894-14.106,171.578,45.971C300.493,154.305,279.906,231.115,219.833,265.799z"/>
<g id="Layer_2_copy_2">
</g>
<g transform="translate(0,-1036.3622)">
	<g transform="translate(628,-140.49998)">
		<g transform="translate(-599.5,50.350676)">
			<g transform="translate(-29.5,89.649313)">
				<g transform="translate(1.5,-1.5000527)">
					<g transform="translate(127.5,-148.00021)">
						<path fill="#2493BE" d="M-46.263,1260.183c-2.896,0-5.247,2.351-5.247,5.247v125.934c0,2.9,2.351,5.251,5.247,5.251h59.85
							c-1.185-3.316-1.687-6.889-2.11-10.497h-52.493v-94.453H74.425v31.507c3.613,0.419,7.177,0.912,10.493,2.108v-59.851
							c0-2.896-2.347-5.247-5.242-5.247H-46.263z M-41.016,1270.676H74.425v10.496H-41.016V1270.676z M-30.52,1302.161v10.493
							h10.497v-10.493H-30.52z M-9.531,1302.161v10.493H0.962v-10.493H-9.531z M11.459,1302.161v10.493h10.496v-10.493H11.459z
							 M32.447,1302.161v10.493h10.494v-10.493H32.447z M53.56,1302.161v10.493h10.496v-10.493H53.56z M-30.52,1323.151v10.493
							h10.497v-10.493H-30.52z M-9.531,1323.151v10.493H0.962v-10.493H-9.531z M11.459,1323.151v10.493h10.496v-10.493H11.459z
							 M32.447,1323.151v10.493h5.475c1.688-1.121,3.214-2.434,5.02-3.38v-7.112H32.447z M69.179,1333.643
							c-26.037,0-47.225,21.196-47.225,47.228c0,26.033,21.188,47.225,47.225,47.225s47.225-21.191,47.225-47.225
							C116.404,1354.839,95.212,1333.643,69.179,1333.643z M69.179,1342.234c21.395,0,38.637,17.239,38.637,38.637
							c0,21.395-17.242,38.637-38.637,38.637s-38.637-17.242-38.637-38.637C30.542,1359.473,47.785,1342.234,69.179,1342.234z
							 M-30.52,1344.139v10.494h10.497v-10.494H-30.52z M-9.531,1344.139v10.494H0.962v-10.494H-9.531z M11.459,1344.139v10.494
							h7.111c0.939-1.802,2.264-3.316,3.384-5.001v-5.493H11.459z M69.118,1354.614c-2.899,0.032-5.222,2.412-5.185,5.308
							c0,0.008,0,0.014,0,0.021v20.906c0,2.9,2.35,5.246,5.246,5.246h18.754c2.9,0.043,5.279-2.275,5.322-5.17
							c0.04-2.9-2.278-5.282-5.174-5.322c-0.047,0-0.097,0-0.148,0H74.425v-15.66c0.043-2.898-2.267-5.286-5.163-5.329
							C69.211,1354.614,69.165,1354.614,69.118,1354.614z M-30.52,1365.128v10.497h10.497v-10.497H-30.52z M-9.531,1365.128v10.497
							H0.962v-10.497H-9.531z"/>
					</g>
				</g>
			</g>
		</g>
	</g>
</g>
</svg>
